<svg version="1.1" baseProfile="full" xmlns="http://www.w3.org/2000/svg" height="128.33776756319511" width="262.5"><g transform="matrix(1,0,0,1,0,12)" fill="#fff"><rect xmlns="http://www.w3.org/2000/svg" y="0" x="0" height="1" width="1" opacity="0"></rect><rect xmlns="http://www.w3.org/2000/svg" y="102.14" x="0" width="25" height="2"></rect><rect xmlns="http://www.w3.org/2000/svg" y="102.14" x="237.5" width="25" height="2"></rect></g><g transform="matrix(5.152695655822754,0,0,5.152695655822754,3.1056880308095587,-21.12605090661211)" fill="#fff"><path d="M12.68 17.52 c0.56 1.6 -0.54 2.68 -1.92 2.68 c-1.9 0 -2.86 -1.28 -2.72 -3.48 l0.26 -3.3 c0.08 -1.14 -0.34 -1.8 -1.36 -1.8 c-0.92 0 -1.52 0.62 -1.78 2.9 l-0.42 5.1 c-0.26 0.24 -0.74 0.38 -1.4 0.38 c-1.34 0 -2.16 -0.56 -2.02 -2.26 l0.38 -5.14 c0.06 -0.84 -0.32 -1.16 -0.98 -1.16 c-0.58 -1.58 0.52 -2.68 1.9 -2.68 c1.34 0 2.22 0.66 2.56 1.84 l0.12 0 c0.74 -1.28 2.04 -1.82 3.36 -1.82 c1.74 0 3.5 0.9 3.3 3.78 l-0.28 3.8 c-0.06 0.86 0.32 1.16 1 1.16 z M16.78 7.5600000000000005 c-1.04 0 -1.92 -0.42 -1.92 -1.58 c0 -1.18 0.92 -1.88 2.26 -1.88 c1.2 0 1.88 0.58 1.88 1.58 c0 1.04 -0.72 1.88 -2.22 1.88 z M17.82 16.36 c-0.06 0.86 0.3 1.16 0.98 1.16 c0.56 1.6 -0.52 2.68 -1.92 2.68 c-1.88 0 -2.84 -1.28 -2.7 -3.48 l0.56 -7.36 c0.18 -0.12 0.86 -0.38 1.62 -0.38 c1.28 0 1.96 0.74 1.88 1.86 z M25.1 11.82 l-0.4 4.38 c-0.08 0.82 0.34 1.28 0.94 1.28 c0.46 0 0.76 -0.14 1.08 -0.36 c0.4 0.2 0.68 0.62 0.68 1.14 c-0.02 1.2 -1.02 1.94 -2.92 1.94 c-2.54 0 -3.52 -1.82 -3.34 -3.84 l0.42 -4.54 l-1.44 0 c-0.14 -0.24 -0.22 -0.66 -0.22 -1.06 c0.02 -1.02 0.82 -1.58 1.56 -1.58 l0.34 0 l0.26 -2.72 c0.18 -0.14 0.84 -0.38 1.64 -0.38 c1.16 0 1.88 0.52 1.78 1.7 l-0.12 1.4 l2.42 0 c0.16 0.34 0.24 0.78 0.24 1.06 c-0.02 0.98 -0.9 1.58 -1.5 1.58 l-1.42 0 z M35.74 8.78 c1.14 0 1.98 0.7 1.98 1.9 c0 1.24 -0.76 2.26 -1.9 2.46 c-0.12 -0.52 -0.42 -0.94 -1.18 -0.94 c-0.7 0 -1.3 0.32 -1.5 2.38 l-0.42 5.04 c-0.26 0.24 -0.74 0.38 -1.4 0.38 c-1.34 0 -2.16 -0.56 -2.02 -2.26 l0.38 -5.14 c0.06 -0.84 -0.32 -1.16 -0.98 -1.16 c-0.58 -1.58 0.52 -2.68 1.9 -2.68 c1.34 0 2.22 0.66 2.56 1.84 l0.12 0 c0.54 -1.08 1.5 -1.82 2.46 -1.82 z M44.2 8.78 c3.12 0 4.88 1.7 4.88 5.1 c0 3.72 -2.08 6.24 -5.96 6.26 c-3.04 0.02 -4.98 -1.54 -4.98 -5.02 c0 -3.76 2.2 -6.34 6.06 -6.34 z M43.92 11.58 c-1.44 0 -2.22 1.32 -2.22 3.36 c0 1.66 0.62 2.4 1.68 2.4 c1.44 0 2.16 -1.24 2.16 -3.32 c0 -1.62 -0.56 -2.44 -1.62 -2.44 z"></path></g><g transform="matrix(2.214839458465576,0,0,2.214839458465576,29.71539334639089,83.59801101775781)" fill="#fff"><path d="M5.42 20.14 c-2.94 0 -4.84 -2.04 -4.84 -5.06 c0 -3.48 2.06 -6.3 5.8 -6.3 c2.12 0 3.64 1.16 3.64 3.04 c0 1.36 -0.78 2.2 -2.06 2.2 c-0.52 0 -0.74 -0.08 -0.96 -0.26 c0.02 -0.1 0.04 -0.34 0.04 -0.56 c0 -1.04 -0.34 -1.62 -1.02 -1.62 c-1 0 -1.88 1.22 -1.88 3.3 c0 1.54 0.68 2.48 1.96 2.48 c0.78 0 1.74 -0.5 2.4 -1.32 c0.56 0.16 0.96 0.74 0.96 1.42 c0 1.38 -1.64 2.68 -4.04 2.68 z M17 8.78 c3.12 0 4.88 1.7 4.88 5.1 c0 3.72 -2.08 6.24 -5.96 6.26 c-3.04 0.02 -4.98 -1.54 -4.98 -5.02 c0 -3.76 2.2 -6.34 6.06 -6.34 z M16.72 11.58 c-1.44 0 -2.22 1.32 -2.22 3.36 c0 1.66 0.62 2.4 1.68 2.4 c1.44 0 2.16 -1.24 2.16 -3.32 c0 -1.62 -0.56 -2.44 -1.62 -2.44 z M41.06 17.52 c0.56 1.6 -0.52 2.68 -1.92 2.68 c-1.88 0 -2.86 -1.3 -2.72 -3.5 l0.28 -3.28 c0.1 -1.14 -0.38 -1.8 -1.12 -1.8 c-0.86 0 -1.46 0.68 -1.64 2.72 l0 -0.02 l-0.42 5.3 c-0.24 0.22 -0.74 0.38 -1.5 0.38 c-1.42 0 -2.1 -0.66 -1.98 -2.14 l0.38 -4.66 c0.1 -1.08 -0.34 -1.58 -1.14 -1.58 c-0.84 0 -1.4 0.7 -1.62 2.38 l-0.46 5.62 c-0.26 0.24 -0.74 0.38 -1.4 0.38 c-1.34 0 -2.16 -0.56 -2.02 -2.26 l0.38 -5.14 c0.06 -0.84 -0.32 -1.16 -0.98 -1.16 c-0.58 -1.58 0.52 -2.68 1.9 -2.68 c1.34 0 2.22 0.66 2.56 1.84 l0.12 0 c0.62 -1 1.76 -1.82 3.26 -1.82 c1.16 0 2.48 0.54 2.92 2.1 l0 -0.02 l0.08 0 c0.54 -1.2 1.78 -2.08 3.34 -2.08 c1.64 0 3.22 1 3 3.9 l-0.3 3.68 c-0.06 0.86 0.32 1.16 1 1.16 z M60.18 17.52 c0.56 1.6 -0.52 2.68 -1.92 2.68 c-1.88 0 -2.86 -1.3 -2.72 -3.5 l0.28 -3.28 c0.1 -1.14 -0.38 -1.8 -1.12 -1.8 c-0.86 0 -1.46 0.68 -1.64 2.72 l0 -0.02 l-0.42 5.3 c-0.24 0.22 -0.74 0.38 -1.5 0.38 c-1.42 0 -2.1 -0.66 -1.98 -2.14 l0.38 -4.66 c0.1 -1.08 -0.34 -1.58 -1.14 -1.58 c-0.84 0 -1.4 0.7 -1.62 2.38 l-0.46 5.62 c-0.26 0.24 -0.74 0.38 -1.4 0.38 c-1.34 0 -2.16 -0.56 -2.02 -2.26 l0.38 -5.14 c0.06 -0.84 -0.32 -1.16 -0.98 -1.16 c-0.58 -1.58 0.52 -2.68 1.9 -2.68 c1.34 0 2.22 0.66 2.56 1.84 l0.12 0 c0.62 -1 1.76 -1.82 3.26 -1.82 c1.16 0 2.48 0.54 2.92 2.1 l0 -0.02 l0.08 0 c0.54 -1.2 1.78 -2.08 3.34 -2.08 c1.64 0 3.22 1 3 3.9 l-0.3 3.68 c-0.06 0.86 0.32 1.16 1 1.16 z M69.52000000000001 16.44 c0.64 0.18 0.9 0.58 0.9 1.14 c0 1.4 -1.6 2.62 -4.1 2.62 c-3.14 0 -5.04 -1.96 -5.04 -5.14 c0 -3.54 2.34 -6.26 5.68 -6.26 c2.7 0 3.78 1.78 3.78 3.36 c0 2.3 -2.3 3.92 -5.6 4.66 c0.36 0.52 0.92 0.82 1.78 0.82 c1.08 0 1.96 -0.5 2.6 -1.2 z M66.7 11.62 c-0.9 0 -1.98 0.84 -2.06 2.94 c2.38 -0.68 2.94 -1.36 2.94 -2.08 c0 -0.56 -0.32 -0.86 -0.88 -0.86 z M79.04 8.78 c1.14 0 1.98 0.7 1.98 1.9 c0 1.24 -0.76 2.26 -1.9 2.46 c-0.12 -0.52 -0.42 -0.94 -1.18 -0.94 c-0.7 0 -1.3 0.32 -1.5 2.38 l-0.42 5.04 c-0.26 0.24 -0.74 0.38 -1.4 0.38 c-1.34 0 -2.16 -0.56 -2.02 -2.26 l0.38 -5.14 c0.06 -0.84 -0.32 -1.16 -0.98 -1.16 c-0.58 -1.58 0.52 -2.68 1.9 -2.68 c1.34 0 2.22 0.66 2.56 1.84 l0.12 0 c0.54 -1.08 1.5 -1.82 2.46 -1.82 z M86.28 20.14 c-2.94 0 -4.84 -2.04 -4.84 -5.06 c0 -3.48 2.06 -6.3 5.8 -6.3 c2.12 0 3.64 1.16 3.64 3.04 c0 1.36 -0.78 2.2 -2.06 2.2 c-0.52 0 -0.74 -0.08 -0.96 -0.26 c0.02 -0.1 0.04 -0.34 0.04 -0.56 c0 -1.04 -0.34 -1.62 -1.02 -1.62 c-1 0 -1.88 1.22 -1.88 3.3 c0 1.54 0.68 2.48 1.96 2.48 c0.78 0 1.74 -0.5 2.4 -1.32 c0.56 0.16 0.96 0.74 0.96 1.42 c0 1.38 -1.64 2.68 -4.04 2.68 z"></path></g></svg>
